<?xml version="1.0"?>
<svg xmlns="http://www.w3.org/2000/svg" viewBox="0 0 24 24" enable-background="new 0 0 24 24">
    <path style="text-indent:0;text-align:start;line-height:normal;text-transform:none;block-progression:tb;-inkscape-font-specification:Bitstream Vera Sans" d="M 17 2 C 16.344162 2 15.79759 2.413588 15.59375 3 C 15.56345 2.9981748 15.530758 3 15.5 3 C 14.671573 3 14 3.6715729 14 4.5 C 14 5.0019294 14.246421 5.4464623 14.625 5.71875 C 13.619847 7.790951 13.390837 11 10 11 C 6.2 11 3 8 3 8 C 3 8 3 17 9 17 C 12 17 14.1875 13.3125 14.1875 13.3125 C 14.1875 13.3125 13.7 18 8 18 C 8 18 9.0523488 18.762573 11 18.96875 L 11 19.1875 C 10.637274 19.316661 10.314375 19.488333 10.0625 19.65625 C 9.6021615 19.963142 9.28125 20.28125 9.28125 20.28125 L 10.71875 21.71875 C 10.71875 21.71875 10.897838 21.536858 11.1875 21.34375 C 11.477162 21.150642 11.833333 21 12 21 C 12.24697 21 12.967229 21.207288 13.53125 21.4375 C 14.095271 21.667712 14.53125 21.875 14.53125 21.875 L 15.46875 20.125 C 15.46875 20.125 14.942229 19.832288 14.28125 19.5625 C 13.890711 19.403096 13.460508 19.266554 13 19.15625 L 13 18.9375 C 15.488281 18.592969 19 16.9875 19 13.3125 C 19 10.8125 18 10.4 18 9 C 18 7.8 21 7 21 7 L 19.5625 5.5625 C 19.833947 5.2910534 20 4.9142135 20 4.5 C 20 3.6715729 19.328427 3 18.5 3 C 18.469242 3 18.43655 2.9981748 18.40625 3 C 18.20241 2.413588 17.655838 2 17 2 z" overflow="visible" enable-background="accumulate" font-family="Bitstream Vera Sans"/>
</svg>
